<svg width="35" height="24" viewBox="0 0 35 24" fill="none" xmlns="http://www.w3.org/2000/svg">
<path d="M31.616 0H2.432C1.78699 0 1.1684 0.252856 0.712316 0.702944C0.256228 1.15303 0 1.76348 0 2.4V21.6C0 22.2365 0.256228 22.847 0.712316 23.2971C1.1684 23.7471 1.78699 24 2.432 24H31.616C32.261 24 32.8796 23.7471 33.3357 23.2971C33.7918 22.847 34.048 22.2365 34.048 21.6V2.4C34.048 1.76348 33.7918 1.15303 33.3357 0.702944C32.8796 0.252856 32.261 0 31.616 0ZM28.9408 2.4L17.024 10.536L5.1072 2.4H28.9408ZM2.432 21.6V3.492L16.3309 12.984C16.5344 13.1234 16.7763 13.198 17.024 13.198C17.2717 13.198 17.5136 13.1234 17.7171 12.984L31.616 3.492V21.6H2.432Z" fill="black"/>
</svg>
