<svg width="40" height="40" viewBox="0 0 40 40" fill="none" xmlns="http://www.w3.org/2000/svg">
<mask id="mask0_384_681" style="mask-type:alpha" maskUnits="userSpaceOnUse" x="3" y="3" width="34" height="34">
<path d="M18.3333 5H7.5C6.83696 5 6.20107 5.26339 5.73223 5.73223C5.26339 6.20107 5 6.83696 5 7.5V25.8333C5 26.4964 5.26339 27.1323 5.73223 27.6011C6.20107 28.0699 6.83696 28.3333 7.5 28.3333H32.5C33.163 28.3333 33.7989 28.0699 34.2678 27.6011C34.7366 27.1323 35 26.4964 35 25.8333V18.3333M20 28.3333V35M11.6667 35H28.3333" stroke="white" stroke-width="3.33333" stroke-linecap="round" stroke-linejoin="round"/>
<path d="M27.75 5.00003C26.2317 5.00003 25 6.19586 25 7.67086C25 10.3409 28.25 12.7684 30 13.3334C31.75 12.7684 35 10.3417 35 7.67086C35 6.19586 33.7692 5.00003 32.25 5.00003C31.812 4.99796 31.3797 5.09974 30.9885 5.29703C30.5974 5.49432 30.2587 5.7815 30 6.13503C29.7413 5.7815 29.4026 5.49432 29.0115 5.29703C28.6203 5.09974 28.188 4.99796 27.75 5.00003V5.00003Z" fill="white" stroke="white" stroke-width="3.33333" stroke-linecap="round" stroke-linejoin="round"/>
</mask>
<g mask="url(#mask0_384_681)">
<path d="M0 0H40V40H0V0Z" fill="#261F20"/>
</g>
</svg>
