<svg width="40" height="40" viewBox="0 0 40 40" fill="none" xmlns="http://www.w3.org/2000/svg">
<path d="M19.9997 3.33398C10.833 3.33398 3.33301 10.834 3.33301 20.0007C3.33301 29.1673 10.833 36.6673 19.9997 36.6673C29.1663 36.6673 36.6663 29.1673 36.6663 20.0007C36.6663 10.834 29.1663 3.33398 19.9997 3.33398ZM19.9997 33.334C12.6497 33.334 6.66634 27.3507 6.66634 20.0007C6.66634 12.6507 12.6497 6.66732 19.9997 6.66732C27.3497 6.66732 33.333 12.6507 33.333 20.0007C33.333 27.3507 27.3497 33.334 19.9997 33.334ZM27.6497 12.634L16.6663 23.6173L12.3497 19.3173L9.99967 21.6673L16.6663 28.334L29.9997 15.0007L27.6497 12.634Z" fill="#9E2E4A"/>
</svg>
