<svg width="40" height="40" viewBox="0 0 40 40" fill="none" xmlns="http://www.w3.org/2000/svg">
<path d="M19.6667 3C10.5 3 3 10.5 3 19.6667C3 28.8333 10.5 36.3333 19.6667 36.3333C28.8333 36.3333 36.3333 28.8333 36.3333 19.6667C36.3333 10.5 28.8333 3 19.6667 3ZM19.6667 33C12.3167 33 6.33333 27.0167 6.33333 19.6667C6.33333 12.3167 12.3167 6.33333 19.6667 6.33333C27.0167 6.33333 33 12.3167 33 19.6667C33 27.0167 27.0167 33 19.6667 33ZM27.3167 12.3L16.3333 23.2833L12.0167 18.9833L9.66667 21.3333L16.3333 28L29.6667 14.6667L27.3167 12.3Z" fill="#D61A24"/>
</svg>
