<svg width="40" height="40" viewBox="0 0 40 40" fill="none" xmlns="http://www.w3.org/2000/svg">
<path d="M32.808 1.99616C31.294 0.48816 28.654 0.49416 27.152 2.00616L23.584 5.58816L19.172 10.0002H10C9.58969 9.99987 9.18923 10.1261 8.85318 10.3615C8.51713 10.597 8.26183 10.9304 8.12203 11.3162L0.122034 33.3162C-0.143966 34.0462 0.0380338 34.8642 0.586034 35.4142L4.58603 39.4142C4.85494 39.6838 5.19541 39.8707 5.56719 39.9529C5.93897 40.0352 6.32653 40.0092 6.68403 39.8782L28.684 31.8782C29.0698 31.7384 29.4032 31.4831 29.6386 31.147C29.8741 30.811 30.0003 30.4105 30 30.0002V20.8282L34.414 16.4142V16.4122H34.416L38 12.8182C38.756 12.0622 39.172 11.0562 39.17 9.98816C39.17 8.91816 38.752 7.91216 37.994 7.15816L32.808 1.99616ZM26.586 18.5862C26.3999 18.7716 26.2524 18.992 26.1518 19.2346C26.0512 19.4773 25.9997 19.7375 26 20.0002V28.6002L7.50203 35.3262L16.844 25.9842C16.896 25.9862 16.948 26.0002 17 26.0002C17.5934 26.0002 18.1734 25.8242 18.6667 25.4946C19.1601 25.1649 19.5446 24.6964 19.7717 24.1482C19.9987 23.6 20.0581 22.9968 19.9424 22.4149C19.8266 21.8329 19.5409 21.2984 19.1214 20.8788C18.7018 20.4593 18.1672 20.1736 17.5853 20.0578C17.0034 19.9421 16.4002 20.0015 15.852 20.2285C15.3038 20.4556 14.8353 20.8401 14.5056 21.3335C14.176 21.8268 14 22.4068 14 23.0002C14 23.0522 14.014 23.1042 14.016 23.1562L4.67403 32.4982L11.4 14.0002H20C20.532 14.0002 21.04 13.7902 21.414 13.4142L25 9.82816L30.172 15.0002L26.586 18.5862ZM32.998 12.1702L27.826 6.99816L29.984 4.83016L35.17 9.99216L32.998 12.1702Z" fill="black"/>
</svg>
