<svg width="26" height="34" viewBox="0 0 26 34" fill="none" xmlns="http://www.w3.org/2000/svg">
<path d="M20.4288 2.125C21.1061 2.125 21.7556 2.34888 22.2345 2.7474C22.7134 3.14591 22.9824 3.68641 22.9824 4.25V29.75C22.9824 30.3136 22.7134 30.8541 22.2345 31.2526C21.7556 31.6511 21.1061 31.875 20.4288 31.875H5.1072C4.42994 31.875 3.78043 31.6511 3.30153 31.2526C2.82264 30.8541 2.5536 30.3136 2.5536 29.75V4.25C2.5536 3.68641 2.82264 3.14591 3.30153 2.7474C3.78043 2.34888 4.42994 2.125 5.1072 2.125H20.4288ZM5.1072 0C3.75269 0 2.45365 0.447767 1.49586 1.2448C0.538078 2.04183 0 3.12283 0 4.25V29.75C0 30.8772 0.538078 31.9582 1.49586 32.7552C2.45365 33.5522 3.75269 34 5.1072 34H20.4288C21.7833 34 23.0823 33.5522 24.0401 32.7552C24.9979 31.9582 25.536 30.8772 25.536 29.75V4.25C25.536 3.12283 24.9979 2.04183 24.0401 1.2448C23.0823 0.447767 21.7833 0 20.4288 0L5.1072 0Z" fill="black"/>
<path d="M12.7682 29.75C13.4455 29.75 14.095 29.5261 14.5739 29.1276C15.0528 28.7291 15.3218 28.1886 15.3218 27.625C15.3218 27.0614 15.0528 26.5209 14.5739 26.1224C14.095 25.7239 13.4455 25.5 12.7682 25.5C12.0909 25.5 11.4414 25.7239 10.9625 26.1224C10.4836 26.5209 10.2146 27.0614 10.2146 27.625C10.2146 28.1886 10.4836 28.7291 10.9625 29.1276C11.4414 29.5261 12.0909 29.75 12.7682 29.75Z" fill="black"/>
</svg>
