<svg width="21" height="16" viewBox="0 0 21 16" fill="none" xmlns="http://www.w3.org/2000/svg">
<path opacity="0.3" d="M4.61014 5.81818C5.51779 5.81818 6.40506 6.11676 7.15974 6.67615C7.91442 7.23555 8.50263 8.03064 8.84997 8.96088C9.19731 9.89113 9.28819 10.9147 9.11112 11.9023C8.93405 12.8898 8.49697 13.7969 7.85517 14.5089C7.21336 15.2209 6.39565 15.7057 5.50544 15.9022C4.61523 16.0986 3.6925 15.9978 2.85394 15.6125C2.01538 15.2272 1.29866 14.5746 0.794392 13.7374C0.290129 12.9003 0.020979 11.916 0.020979 10.9091L0 10.1818C0 7.48143 0.966999 4.89165 2.68827 2.98219C4.40954 1.07272 6.74408 0 9.17832 0V2.90909C8.317 2.90652 7.46377 3.0934 6.66796 3.45891C5.87215 3.82442 5.14956 4.36131 4.54196 5.03854C4.30581 5.30002 4.08795 5.58108 3.8903 5.87927C4.125 5.83854 4.36495 5.81673 4.60883 5.81673L4.61014 5.81818ZM16.4108 5.81818C17.3185 5.81818 18.2058 6.11676 18.9604 6.67615C19.7151 7.23555 20.3033 8.03064 20.6507 8.96088C20.998 9.89113 21.0889 10.9147 20.9118 11.9023C20.7347 12.8898 20.2977 13.7969 19.6559 14.5089C19.0141 15.2209 18.1963 15.7057 17.3061 15.9022C16.4159 16.0986 15.4932 15.9978 14.6546 15.6125C13.8161 15.2272 13.0994 14.5746 12.5951 13.7374C12.0908 12.9003 11.8217 11.916 11.8217 10.9091L11.8007 10.1818C11.8007 7.48143 12.7677 4.89165 14.489 2.98219C16.2102 1.07272 18.5448 0 20.979 0V2.90909C20.1177 2.90652 19.2645 3.0934 18.4687 3.45891C17.6729 3.82442 16.9503 4.36131 16.3427 5.03854C16.1065 5.30002 15.8887 5.58108 15.691 5.87927C15.9257 5.83854 16.1656 5.81673 16.4108 5.81673V5.81818Z" fill="#261F20"/>
</svg>
