<svg width="40" height="28" viewBox="0 0 40 28" fill="none" xmlns="http://www.w3.org/2000/svg">
<path d="M29.67 8.11C29.67 8.11 26.4267 18.2817 26.1617 19.1217C25.3449 12.7468 24.5205 6.37289 23.6883 0C18.1617 0 15.2067 3.93333 13.645 8.085L9.37 19.1467C9.345 18.3533 8.77 8.205 8.77 8.205C8.43 3.11833 3.77 0.0216667 0 0.0216667L4.565 27.6883C10.355 27.6633 13.4767 23.7533 15.1117 19.6017C15.1117 19.6017 18.595 10.605 18.7383 10.1967C18.7633 10.58 21.2383 27.6867 21.2383 27.6867C27.0517 27.6867 30.175 24.0167 31.855 20.01L40 0.0233332C34.2583 0.0233332 31.2317 3.93333 29.67 8.10833V8.11Z" fill="#060000"/>
</svg>
